<svg width="512" height="512" viewBox="0 0 512 512" fill="none" xmlns="http://www.w3.org/2000/svg">
  <defs>
    <linearGradient id="paint0_linear" x1="0" y1="0" x2="512" y2="512" gradientUnits="userSpaceOnUse">
      <stop stop-color="#524fff"/>
      <stop offset="1" stop-color="#7b4fff"/>
    </linearGradient>
    <filter id="filter0_d" x="0" y="0" width="512" height="512" filterUnits="userSpaceOnUse" color-interpolation-filters="sRGB">
      <feFlood flood-opacity="0" result="BackgroundImageFix"/>
      <feColorMatrix in="SourceAlpha" type="matrix" values="0 0 0 0 0 0 0 0 0 0 0 0 0 0 0 0 0 0 127 0"/>
      <feOffset dy="4"/>
      <feGaussianBlur stdDeviation="10"/>
      <feColorMatrix type="matrix" values="0 0 0 0 0 0 0 0 0 0 0 0 0 0 0 0 0 0 0.25 0"/>
      <feBlend mode="normal" in2="BackgroundImageFix" result="effect1_dropShadow"/>
      <feBlend mode="normal" in="SourceGraphic" in2="effect1_dropShadow" result="shape"/>
    </filter>
  </defs>
  <rect x="40" y="40" width="432" height="432" rx="100" fill="url(#paint0_linear)"/>
  <path d="M160 140H280C346.274 140 400 193.726 400 260C400 326.274 346.274 380 280 380H160V140Z" fill="white" fill-opacity="0.2"/>
  <path d="M160 140V380M160 140H280C335.228 140 380 184.772 380 240C380 295.228 335.228 340 280 340H160" stroke="white" stroke-width="40" stroke-linecap="round" stroke-linejoin="round"/>
  <path d="M240 200L180 260L240 320" stroke="white" stroke-width="30" stroke-linecap="round" stroke-linejoin="round"/>
  <path d="M280 200L340 260L280 320" stroke="white" stroke-width="30" stroke-linecap="round" stroke-linejoin="round"/>
</svg>
